<?xml version="1.0" encoding="UTF-8"?>
<svg width="2000" height="1000" viewBox="0 0 2000 1000" fill="none" xmlns="http://www.w3.org/2000/svg">
  <g stroke="#1A6AAC" stroke-width="3" fill="none">
    <!-- 北美洲 -->
    <path d="M220,220 C300,120 500,100 600,200 C700,300 650,400 550,450 C400,500 300,400 220,220 Z"/>
    <!-- 南美洲 -->
    <path d="M600,600 C650,700 700,900 800,950 C900,1000 950,900 900,800 C850,700 700,600 600,600 Z"/>
    <!-- 欧洲 -->
    <path d="M1100,200 C1200,150 1300,180 1350,250 C1400,320 1300,350 1200,300 C1150,250 1100,200 1100,200 Z"/>
    <!-- 非洲 -->
    <path d="M1200,350 C1250,400 1300,600 1250,800 C1200,900 1100,850 1100,700 C1100,600 1200,500 1200,350 Z"/>
    <!-- 亚洲 -->
    <path d="M1350,250 C1500,200 1700,300 1800,400 C1900,500 1800,700 1600,650 C1500,600 1450,500 1400,400 C1375,350 1350,250 1350,250 Z"/>
    <!-- 澳大利亚 -->
    <path d="M1700,850 C1750,900 1850,950 1900,900 C1950,850 1850,800 1800,850 C1750,900 1700,850 1700,850 Z"/>
  </g>
</svg> 